<svg id="logo-gaijin_small" viewBox="0 0 24 33"  xmlns="http://www.w3.org/2000/svg">
<path d="M22.8806 2.84183C22.794 2.38444 23.3924 2.20115 23.3551 1.3009C23.3057 -0.767425 20.3862 -0.275275 21.098 2.11048C22.175 6.01441 21.3926 8.72758 20.7118 10.0956C20.3733 10.7795 19.7234 9.96369 19.6162 9.46104C18.7951 5.60242 17.2531 4.59295 18.2331 1.94772C19.0048 -0.132954 15.7695 -0.97143 15.976 1.98694C15.9966 2.62763 16.807 6.52674 16.7327 8.77836C16.7246 9.0504 16.0353 9.23777 15.7301 9.12241C14.325 8.59301 12.8057 8.32794 11.4006 8.26818C5.22738 8.26818 0 13.2723 0 19.4361C0 24.0593 2.52263 27.7201 6.28387 29.261C5.46683 30.4148 5.63175 31.5499 4.90555 33C10.8518 32.9926 12.3269 28.7134 16.1872 28.7259C19.7524 28.7219 19.5233 28.7526 23.0927 28.7011C23.8107 28.6889 23.493 27.2605 23.332 26.9619C19.3812 19.6341 23.9371 14.0345 23.9886 12.0979C24.0731 8.84307 23.6873 7.13525 22.8806 2.84183ZM18.4217 25.4725C15.7126 24.9161 11.2376 28.3382 8.45011 27.8311C6.95853 27.5449 5.76391 22.1928 4.77576 19.7722C4.46415 19.045 4.03074 18.7665 3.69246 18.2331C3.38301 17.7427 3.61816 17.1309 3.53565 16.822C3.04675 14.9843 8.54713 12.1249 13.4164 11.3729L17.6581 11.5852L17.9615 12.7903L19.28 13.0807L18.9333 15.4189L12.8284 14.5476C10.5567 15.4354 8.96186 15.6311 7.21847 17.2379C7.58981 17.8065 7.35659 18.5935 7.74057 19.1621C7.87453 19.3621 8.52244 19.4321 8.65442 19.6196C8.42331 20.2087 9.2403 21.6243 9.32084 21.999L9.77689 24.809C11.869 24.0714 14.6253 22.7673 16.2635 22.6088C17.5076 22.6316 16.5462 20.5756 16.2945 19.4361C15.9871 18.0065 13.8186 19.2878 11.9576 20.0626L12.8819 22.0321L12.1391 23.1073L11.8008 22.3203L11.2974 22.7447L9.90484 18.9131L10.961 17.615L12.1577 17.9716C13.4307 17.4174 15.3599 15.9011 16.8639 16.5459C17.1898 16.6859 17.2106 16.9785 17.3405 17.4955L18.0463 17.8025C18.4567 20.0748 21.5124 26.107 18.4217 25.4725Z" />
</svg>
