<svg id="logo-inst" viewBox="0 0 30 30" xmlns="http://www.w3.org/2000/svg">
<path fill-rule="evenodd" clip-rule="evenodd" d="M15 0C10.9262 0 10.4156 0.0174982 8.81561 0.0899982C7.21874 0.163123 6.12812 0.416872 5.17437 0.787497C4.18812 1.17062 3.35124 1.68375 2.51812 2.5175C1.68374 3.35125 1.17063 4.18813 0.787506 5.17438C0.416881 6.12875 0.162508 7.21875 0.0900078 8.81562C0.0175078 10.4156 0 10.9262 0 15C0 19.0737 0.0175078 19.5844 0.0900078 21.1844C0.163133 22.7813 0.416881 23.8719 0.787506 24.8256C1.17063 25.8119 1.68376 26.6487 2.51751 27.4819C3.35126 28.3162 4.18812 28.8294 5.17437 29.2131C6.12874 29.5831 7.21874 29.8369 8.81561 29.91C10.4156 29.9825 10.9262 30 15 30C19.0737 30 19.5844 29.9825 21.1844 29.91C22.7813 29.8369 23.8719 29.5831 24.8256 29.2125C25.8119 28.8294 26.6488 28.3162 27.4819 27.4825C28.3163 26.6488 28.8294 25.8119 29.2131 24.8256C29.5831 23.8712 29.8369 22.7813 29.91 21.1844C29.9825 19.5844 30 19.0737 30 15C30 10.9262 29.9825 10.4156 29.91 8.81562C29.8369 7.21875 29.5831 6.12813 29.2125 5.17438C28.8294 4.18813 28.3162 3.35125 27.4825 2.51813C26.6487 1.68375 25.8119 1.17062 24.8256 0.787497C23.8713 0.416872 22.7813 0.162498 21.1844 0.0899982C19.5844 0.0174982 19.0737 0 15 0ZM15 2.7025C19.005 2.7025 19.4794 2.71813 21.0612 2.79C22.5237 2.85688 23.3175 3.10125 23.8469 3.30688C24.5469 3.57875 25.0469 3.90375 25.5719 4.42875C26.0962 4.95375 26.4212 5.45375 26.6931 6.15375C26.8994 6.68187 27.1431 7.47625 27.21 8.93875C27.2819 10.52 27.2975 10.995 27.2975 15C27.2975 19.005 27.2819 19.4794 27.21 21.0612C27.1431 22.5237 26.8987 23.3175 26.6931 23.8469C26.4212 24.5469 26.0963 25.0469 25.5713 25.5719C25.0463 26.0962 24.5462 26.4212 23.8462 26.6931C23.3181 26.8994 22.5237 27.1431 21.0612 27.21C19.48 27.2819 19.005 27.2975 15 27.2975C10.9944 27.2975 10.52 27.2819 8.93875 27.21C7.47625 27.1431 6.6825 26.8988 6.15313 26.6931C5.45313 26.4212 4.95312 26.0963 4.42812 25.5713C3.90374 25.0463 3.57874 24.5463 3.30687 23.8463C3.10062 23.3181 2.85687 22.5237 2.78999 21.0612C2.71812 19.48 2.7025 19.005 2.7025 15C2.7025 10.995 2.71812 10.5206 2.78999 8.93875C2.85687 7.47625 3.10124 6.6825 3.30687 6.15313C3.57874 5.45313 3.90375 4.95313 4.42875 4.42813C4.95375 3.90375 5.45376 3.57875 6.15376 3.30688C6.68188 3.10063 7.47625 2.85688 8.93875 2.79C10.52 2.71813 10.995 2.7025 15 2.7025ZM15 7.2975C10.7456 7.2975 7.2975 10.7456 7.2975 15C7.2975 19.2544 10.7456 22.7025 15 22.7025C19.2544 22.7025 22.7025 19.2544 22.7025 15C22.7025 10.7456 19.2544 7.2975 15 7.2975ZM15 20C13.6739 20 12.4021 19.4732 11.4645 18.5355C10.5268 17.5979 10 16.3261 10 15C10 13.6739 10.5268 12.4021 11.4645 11.4645C12.4021 10.5268 13.6739 10 15 10C16.3261 10 17.5979 10.5268 18.5355 11.4645C19.4732 12.4021 20 13.6739 20 15C20 16.3261 19.4732 17.5979 18.5355 18.5355C17.5979 19.4732 16.3261 20 15 20ZM24.8069 6.99312C24.8069 7.47051 24.6172 7.92835 24.2797 8.26591C23.9421 8.60348 23.4842 8.79313 23.0069 8.79313C22.5295 8.79313 22.0717 8.60348 21.7341 8.26591C21.3965 7.92835 21.2069 7.47051 21.2069 6.99312C21.2069 6.51573 21.3965 6.05789 21.7341 5.72033C22.0717 5.38276 22.5295 5.19313 23.0069 5.19313C23.4842 5.19313 23.9421 5.38276 24.2797 5.72033C24.6172 6.05789 24.8069 6.51573 24.8069 6.99312Z" />
</svg>
