<svg id="logo-vive" viewBox="0 0 46 36" xmlns="http://www.w3.org/2000/svg">
<path d="M24.8763 0.633C24.6495 0.241345 24.2303 0 23.7767 0H21.2648C20.8112 0 20.3921 0.241345 20.1652 0.633119L12.9441 13.1051C12.7172 13.497 12.7172 13.9798 12.944 14.3717L14.1984 16.5392C14.4252 16.9311 14.8444 17.1726 15.2981 17.1726H29.7437C30.1972 17.1726 30.6164 16.9313 30.8431 16.5396L32.0987 14.3718C32.3257 13.9799 32.3257 13.4969 32.0987 13.1049L24.8763 0.633ZM25.9656 14.3093C24.8782 14.6517 23.7211 14.8359 22.5202 14.8359C21.3209 14.8359 20.1642 14.6518 19.0774 14.3102C17.8053 13.9102 17.02 12.6235 17.2936 11.3215C17.7916 8.95274 19.0263 6.85398 20.7479 5.27456C21.7518 4.35361 23.2889 4.35336 24.2931 5.27407C26.015 6.85287 27.2503 8.95175 27.7484 11.3205C28.0222 12.6224 27.2372 13.9088 25.9656 14.3093Z" />
<path d="M32.0595 25.9635C31.969 25.8074 31.802 25.7114 31.6213 25.7114H31.201C31.0897 25.7114 30.9873 25.7723 30.9393 25.8723L27.2774 33.1421C27.2007 33.2947 26.9824 33.2947 26.9056 33.1421L23.2416 25.8723C23.1936 25.7723 23.0912 25.7114 22.9822 25.7114H22.5597C22.379 25.7114 22.2119 25.8074 22.1214 25.9635L21.6558 26.7665C21.5774 26.9058 21.5709 27.0755 21.645 27.2191L26.0031 35.774C26.075 35.911 26.2169 35.9981 26.3717 35.9981H27.8092C27.9663 35.9981 28.108 35.911 28.1778 35.774L32.5382 27.2191C32.611 27.0766 32.6066 26.9071 32.5263 26.7687L32.0595 25.9635Z" />
<path d="M10.4656 25.9631C10.3757 25.8079 10.2096 25.7124 10.03 25.7124H9.60796C9.49671 25.7124 9.39424 25.7733 9.34626 25.8733L5.6845 33.1432C5.60768 33.2957 5.38941 33.2957 5.31257 33.1432L1.64859 25.8733C1.60062 25.7733 1.49813 25.7124 1.38912 25.7124H0.964891C0.785209 25.7124 0.619226 25.8079 0.529207 25.9631L0.0629297 26.7676C-0.0156232 26.9068 -0.0221687 27.0766 0.0519528 27.2201L4.41011 35.775C4.48212 35.9121 4.62383 35.9992 4.77871 35.9992H6.21614C6.37325 35.9992 6.51494 35.9121 6.58487 35.775L10.9451 27.2201C11.018 27.0777 11.0136 26.9082 10.9333 26.7698L10.4656 25.9631Z" />
<path d="M16.8937 25.7111H16.2414C16.0612 25.7111 15.8948 25.807 15.8049 25.9627L15.3403 26.7677C15.2988 26.84 15.2769 26.9216 15.2769 27.0041V35.5813C15.2769 35.8116 15.464 35.9983 15.6948 35.9983H16.8983C17.1272 35.9983 17.3127 35.8132 17.3127 35.585V26.1289C17.3127 26.0135 17.2658 25.909 17.1896 25.833C17.1142 25.7578 17.0095 25.7111 16.8937 25.7111Z" />
<path d="M39.0676 27.5365H44.759C44.9161 27.5365 45.0428 27.4082 45.0428 27.2542V27.0664C45.0428 26.9418 45.0098 26.819 44.9473 26.7109L44.5078 25.9568C44.4193 25.8047 44.2563 25.7111 44.08 25.7111H37.8363C37.6564 25.7111 37.4899 25.8068 37.3998 25.9621L36.9656 26.7099C36.9032 26.818 36.8701 26.9409 36.8701 27.0655L36.8691 34.6439C36.8691 34.7693 36.9022 34.8922 36.9656 35.0012L37.3998 35.7491C37.4899 35.9044 37.6564 36 37.8363 36H44.08C44.2563 36 44.4193 35.9064 44.5078 35.7543L44.9473 34.9985C45.0098 34.8904 45.0428 34.7676 45.0428 34.642V34.4532C45.0428 34.2983 44.9161 34.1729 44.759 34.1729H39.0667C38.952 34.1729 38.859 34.0801 38.859 33.9657V31.9434C38.859 31.829 38.952 31.7362 39.0667 31.7362H42.9216C43.11 31.7362 43.2642 31.5825 43.2642 31.3944V30.2627C43.2642 30.0757 43.1118 29.9236 42.9243 29.9209H39.0667C38.952 29.9209 38.859 29.8281 38.859 29.7137V27.7445C38.859 27.6301 38.9529 27.5365 39.0676 27.5365Z" />
<path d="M45.0858 25.7111V25.7692H45.2381V26.1361H45.3075V25.7692H45.4562V25.7111H45.0858ZM45.9045 25.7111L45.7597 26.0447H45.756L45.6122 25.7111H45.5169V26.1361H45.5863L45.5825 25.8063H45.5863L45.7287 26.1361H45.7869L45.9305 25.8063H45.9342L45.9305 26.1361H46V25.7111H45.9045Z" />
</svg>
