<svg id="logo-steam_short" viewBox="0 0 32 32" xmlns="http://www.w3.org/2000/svg">

<path d="M16.347 0C8.20335 0 1.43456 6.44293 0.799988 14.7114L9.15521 18.255C9.89555 17.7181 10.7416 17.5033 11.6935 17.5033C11.7993 17.5033 11.905 17.5033 11.905 17.5033L15.6067 12.0268C15.6067 12.0268 15.6067 12.0268 15.6067 11.9194C15.6067 8.59057 18.2508 5.90602 21.5294 5.90602C24.808 5.90602 27.4521 8.59057 27.4521 11.9194C27.4521 15.2483 24.808 17.9328 21.5294 17.9328H21.4236L16.1355 21.7986C16.1355 21.906 16.1355 21.906 16.1355 22.0133C16.1355 24.4831 14.126 26.5234 11.6935 26.5234C9.57826 26.5234 7.7803 24.9127 7.35725 22.8724L1.3288 20.4026C3.23252 27.0603 9.26097 31.9999 16.347 31.9999C25.0196 31.9999 31.9999 24.8053 31.9999 15.9999C31.9999 7.1946 25.0196 0 16.347 0Z" />
<path d="M10.6359 24.2684L8.73219 23.4093C9.04947 24.161 9.68405 24.6979 10.4244 25.1274C12.1166 25.8791 14.0203 25.02 14.7606 23.3019C15.0779 22.4429 15.0779 21.5838 14.7606 20.7248C14.4433 19.8657 13.8088 19.2214 12.9627 18.8993C12.1166 18.5771 11.2705 18.5771 10.5301 18.8993L12.5396 19.7583C13.8088 20.2952 14.3376 21.7986 13.8088 22.9798C13.28 24.161 11.7993 24.8053 10.6359 24.2684Z" />
<path d="M18.568 11.9194C18.568 10.2013 19.8371 8.91273 21.5293 8.91273C23.1158 8.91273 24.4907 10.3087 24.4907 11.9194C24.4907 13.6375 23.2215 14.9261 21.5293 14.9261C19.9429 14.9261 18.568 13.5302 18.568 11.9194ZM25.4425 11.9194C25.4425 9.6644 23.6446 7.94629 21.5293 7.94629C19.4141 7.94629 17.6161 9.77179 17.6161 11.9194C17.6161 14.1745 19.4141 15.8926 21.5293 15.8926C23.6446 15.8926 25.4425 14.0671 25.4425 11.9194Z" />
</svg>
