<svg id="logo-linux" viewBox="0 0 32 32" xmlns="http://www.w3.org/2000/svg">
<path fill-rule="evenodd" clip-rule="evenodd" d="M5.4 28C5.4 27.9 5.4 27.9 5.4 28C5.3 27.9 5.3 27.9 5.4 28C5.4 27.9 5.4 27.9 5.4 28ZM22.6 30.6C22.7 30.5 22.8 30.5 22.9 30.4C22.8 30.5 22.7 30.5 22.6 30.6ZM7.8 29.7C7.8 29.7 7.7 29.7 7.8 29.7V29.7ZM26.2 28.3C26.6 28 26.9 27.7 27.3 27.4C26.9 27.7 26.5 28 26.2 28.3ZM16 0C7.2 0 0 7.2 0 16C0 20.7 2.1 25 5.3 27.9C5.8 26.3 5.5 24.2 5.5 22.3C5.5 18.2 4.9 5.6 15.3 5.6C15.8 5.6 15.9 5.6 16.3 5.6C24.6 5.6 26.4 11.1 26.4 22.3C26.4 24.2 26.4 25.9 27.2 27.4C30.2 24.5 32 20.5 32 16C32 7.2 24.8 0 16 0ZM11.9 19.6C12 19.6 12 19.6 12.1 19.5C12.1 19.2 12.1 19 12.1 18.7C12.1 18 11.9 17.5 11.7 16.9C11.5 16.3 11.2 15.9 10.8 15.6C10.4 15.3 10.1 15.2 9.7 15.2H9.6C9.2 15.2 8.8 15.4 8.5 15.8C8.1 16.2 7.9 16.6 7.7 17.2C7.5 17.8 7.5 18.4 7.5 19C7.5 19.7 7.7 20.2 7.9 20.8C8.1 21.3 8.3 21.6 8.6 21.9C8.7 21.8 8.9 21.7 9 21.6C9.2 21.5 9.2 21.4 9.4 21.3C9.4 21.3 9.3 21.3 9.3 21.2C9.1 21 9 20.8 8.9 20.5C8.8 20.2 8.7 19.9 8.7 19.6C8.7 19.3 8.7 18.9 8.8 18.6C8.9 18.3 9 18.1 9.1 17.9C9.3 17.7 9.4 17.6 9.6 17.6C9.6 17.6 9.6 17.6 9.7 17.6C9.9 17.6 10 17.7 10.2 17.8C10.4 18 10.5 18.2 10.6 18.5C10.7 18.8 10.8 19.1 10.8 19.4C10.8 19.7 10.8 19.9 10.8 20.1C11.2 19.9 11.5 19.7 11.9 19.6ZM7.5 24.6C7.7 25.2 8.3 25.9 9.4 26.6C10.1 27 10.5 27.5 11.1 28C11.6 28.4 12.2 28.8 13.2 28.8C14.3 28.9 15.2 28.5 15.9 28.1C16.6 27.7 17.3 27.1 18 26.9C19.5 26.4 20.5 25.5 20.9 24.6C21.1 24.2 21.1 23.7 20.9 23.3C20.7 22.9 20.3 22.5 19.6 22.2C18.2 21.6 17.5 21.5 16.7 21C15.4 20.2 14.3 19.9 13.4 19.9C12.9 19.9 12.5 20 12.1 20.1C11 20.5 10.3 21.3 9.8 21.7C9.7 21.8 9.6 21.9 9.3 22.1C9 22.3 8.6 22.6 8 23.1C7.5 23.4 7.3 24 7.5 24.6ZM8.1 24.1V23.7C8.3 23.7 8.4 23.8 8.5 23.9C8.6 24 8.7 24.1 8.8 24.2C9.1 24.4 9.4 24.8 9.8 25.1C10.6 25.7 11.6 26.3 13 26.3C14.3 26.3 15.6 25.7 16.8 25C17.4 24.7 17.9 24.3 18.4 24.1C18.9 23.9 19.3 23.6 19.7 23.6V24.1C19.5 24.1 19.1 24.3 18.6 24.5C18.1 24.8 17.6 25.1 17 25.4C15.8 26.1 14.4 26.8 13 26.8C11.5 26.8 10.4 26.1 9.5 25.4C9.1 25.1 8.7 24.7 8.5 24.5C8.4 24.4 8.3 24.3 8.2 24.2L8.1 24.1C8.1 24.2 8.1 24.2 8.1 24.1ZM18.7 20.6C18.6 20.8 18.5 21 18.4 21.2C18.8 21.3 19.2 21.5 19.8 21.7C19.9 21.7 20 21.8 20 21.8C20.2 21.5 20.4 21.2 20.6 20.8C20.9 20.1 21 19.5 21 18.7C21 18.7 21 18.7 21 18.6C21 17.9 20.8 17.2 20.5 16.6C20.2 15.9 19.8 15.5 19.3 15.1C18.8 14.7 18.3 14.6 17.7 14.6C17.1 14.6 16.6 14.8 16.1 15.2C15.6 15.6 15.2 16.1 14.9 16.7C14.6 17.4 14.5 18 14.5 18.8V18.9C14.5 19.1 14.5 19.3 14.5 19.5C15 19.6 15.4 19.8 16 20C16 19.8 15.9 19.6 16 19.3C16 18.9 16.1 18.5 16.2 18.2C16.3 17.8 16.5 17.6 16.8 17.4C17 17.2 17.2 17.1 17.5 17.1C17.8 17.1 18 17.2 18.2 17.4C18.4 17.6 18.6 17.9 18.7 18.3C18.8 18.7 18.9 19 18.9 19.4C18.9 19.4 18.9 19.4 18.9 19.5C18.9 19.9 18.8 20.2 18.7 20.6ZM18.1 27.3C17.5 27.5 16.9 28 16.1 28.5C15.3 29 14.4 29.3 13.1 29.3C12 29.2 11.3 28.8 10.7 28.4C10.1 27.9 9.7 27.4 9.1 27.1C8.9 27 8.4 26.7 8.3 26.6C8.2 27.7 8 28.8 7.8 29.9C10.2 31.2 13 32 16 32C18.4 32 20.6 31.5 22.6 30.6C21.9 28.8 21.3 27 20.9 25.4C20.4 26.2 19.4 26.9 18.1 27.3Z" />
</svg>
