<svg id="logo-mac_short" viewBox="0 0 30 29" xmlns="http://www.w3.org/2000/svg">
<path d="M12.7683 7.35583C13.1274 4.81554 13.8447 2.33896 14.8988 0H1.10842C0.248556 0 1.68667e-05 0.260909 7.4024e-06 1.1372C-2.0619e-06 2.0135 7.4024e-06 26.2056 7.4024e-06 27.0482C7.4024e-06 27.8907 0.22041 28.0558 1.10842 28.0558C1.99643 28.0558 17.6482 28.0558 17.6482 28.0558C17.2951 26.2035 17.0357 24.3346 16.8709 22.4562C16.2356 22.5325 15.5963 22.571 14.9564 22.5713C8.13317 22.5713 5.62844 18.8142 5.52768 18.6559C5.50269 18.5992 5.48979 18.5379 5.48979 18.476C5.48979 18.414 5.50269 18.3527 5.52768 18.296C5.54222 18.1943 5.58936 18.1 5.66204 18.0273C5.73471 17.9546 5.82899 17.9075 5.93074 17.893C6.00996 17.8957 6.08749 17.9166 6.15737 17.9541C6.22725 17.9915 6.2876 18.0445 6.3338 18.1089C6.85305 18.8289 7.50837 19.4402 8.26272 19.9083C10.2822 21.114 12.6057 21.7136 14.9564 21.6356C15.5721 21.64 16.1874 21.6063 16.7989 21.5349C16.6982 20.0954 16.6406 18.5407 16.6406 17.0724C16.6406 16.727 16.5398 16.727 16.3527 16.727H13.1714C12.9979 16.7337 12.825 16.7038 12.6638 16.6393C12.5026 16.5749 12.3567 16.4772 12.2357 16.3527C12.1211 16.2276 12.0347 16.0793 11.9825 15.9178C11.9304 15.7564 11.9136 15.5855 11.9334 15.417C11.9275 15.3356 11.9275 15.2538 11.9334 15.1723C12.0608 12.5529 12.3396 9.94304 12.7683 7.35583ZM8.66578 9.60145C8.6433 9.74758 8.56925 9.88084 8.45704 9.97712C8.34482 10.0734 8.20185 10.1263 8.054 10.1263C7.90614 10.1263 7.76317 10.0734 7.65096 9.97712C7.53874 9.88084 7.46469 9.74758 7.44221 9.60145V7.52857C7.42864 7.44037 7.4343 7.35027 7.45881 7.26446C7.48332 7.17864 7.5261 7.09915 7.58421 7.03141C7.64232 6.96368 7.71439 6.90931 7.79548 6.87204C7.87656 6.83477 7.96475 6.81547 8.054 6.81547C8.14324 6.81547 8.23143 6.83477 8.31252 6.87204C8.3936 6.90931 8.46567 6.96368 8.52378 7.03141C8.58189 7.09915 8.62467 7.17864 8.64918 7.26446C8.67369 7.35027 8.67935 7.44037 8.66578 7.52857V9.60145ZM28.8372 0H15.9537C14.8267 2.37063 14.0693 4.89988 13.708 7.49978C13.2929 10.0546 13.0189 12.6305 12.8875 15.2155C12.8788 15.3882 12.845 15.5194 12.8875 15.6206C12.9606 15.6979 12.9856 15.7049 13.1179 15.7049H16.2991C16.4716 15.6933 16.6445 15.7197 16.8057 15.7822C16.9668 15.8448 17.1123 15.942 17.2318 16.0669C17.3512 16.1919 17.4418 16.3415 17.497 16.5053C17.5523 16.6691 17.5709 16.8431 17.5515 17.0149C17.5515 18.4544 17.5515 19.8939 17.6955 21.3334C19.0791 21.1023 20.4071 20.6141 21.6109 19.8939C22.4019 19.4439 23.1004 18.8479 23.6694 18.1377C23.7156 18.0732 23.7759 18.0203 23.8458 17.9828C23.9157 17.9454 23.9932 17.9245 24.0724 17.9217C24.1662 17.9195 24.2578 17.95 24.3315 18.0081C24.3849 18.0418 24.431 18.0857 24.4672 18.1374C24.5034 18.189 24.5289 18.2474 24.5423 18.309C24.5557 18.3707 24.5567 18.4343 24.5453 18.4964C24.5338 18.5584 24.5101 18.6175 24.4755 18.6703C22.8209 20.6957 20.4493 22.0052 17.8538 22.3266V22.4418C18.0265 24.4715 18.4136 26.861 18.6583 28.0558H28.8788C29.6233 28.0558 29.9775 27.8064 29.9775 26.8954C29.9775 25.9845 30 1.25439 30 1.25439C30 0.278563 29.8013 0 28.8372 0ZM22.5034 9.57266C22.5034 9.733 22.4397 9.88678 22.3263 10.0002C22.2129 10.1135 22.0591 10.1772 21.8988 10.1772C21.8182 10.1792 21.738 10.1649 21.663 10.1354C21.588 10.1059 21.5196 10.0617 21.4619 10.0053C21.4043 9.949 21.3584 9.8817 21.3272 9.8074C21.2959 9.73309 21.2798 9.65328 21.2798 9.57266V7.49978C21.2662 7.41158 21.2719 7.32148 21.2964 7.23567C21.3209 7.14985 21.3637 7.07036 21.4218 7.00262C21.4799 6.93489 21.552 6.88052 21.6331 6.84325C21.7142 6.80598 21.8023 6.78668 21.8916 6.78668C21.9808 6.78668 22.069 6.80598 22.1501 6.84325C22.2312 6.88052 22.3033 6.93489 22.3614 7.00262C22.4195 7.07036 22.4623 7.14985 22.4868 7.23567C22.5113 7.32148 22.5169 7.41158 22.5034 7.49978V9.57266Z" />
</svg>
