<svg id="logo-oculus" viewBox="0 0 44 35" xmlns="http://www.w3.org/2000/svg">
<path d="M12.8958 33.2217C12.4993 33.315 12.0796 33.3034 11.6831 33.1751C11.2867 33.0468 10.9486 32.802 10.7154 32.4638C10.4822 32.1257 10.3539 31.7293 10.3306 31.3212C10.3073 30.9248 10.3889 30.4933 10.5754 30.1435C10.7737 29.7704 11.0652 29.5023 11.4616 29.339C11.6248 29.2691 11.7997 29.2224 11.9746 29.1874C12.2078 29.1525 12.4294 29.1408 12.6626 29.1758C13.0706 29.2224 13.4554 29.374 13.7936 29.5955C14.1317 29.1641 14.4815 28.7327 14.8196 28.2896C14.225 27.8232 13.5604 27.5551 12.8141 27.4734C12.0912 27.3918 11.3333 27.5084 10.6687 27.8232C9.99245 28.1497 9.4561 28.6511 9.10631 29.3157C8.75652 29.9686 8.6166 30.7149 8.65157 31.4378C8.68655 32.1724 8.90809 32.8953 9.32784 33.5016C9.75926 34.1195 10.3539 34.551 11.0652 34.7842C11.7531 35.0173 12.5226 35.064 13.2339 34.9124C13.9568 34.7608 14.6214 34.411 15.1344 33.8747C14.7497 33.4783 14.3532 33.0702 13.9685 32.6737C13.6653 32.9419 13.2922 33.1285 12.8958 33.2217Z" />
<path d="M3.70783 27.4734C2.7284 27.4734 1.76064 27.8349 1.06105 28.5462C0.361458 29.2574 0 30.2252 0 31.2046C0 32.184 0.349794 33.1518 1.04938 33.863C1.74897 34.5743 2.70508 34.9474 3.6845 34.9474C4.66393 34.9474 5.63169 34.5859 6.33128 33.8747C7.03087 33.1634 7.39232 32.1957 7.39232 31.2162C7.39232 30.2368 7.04253 29.2691 6.34294 28.5578C5.64335 27.8582 4.68725 27.4734 3.70783 27.4734ZM5.67833 31.6593C5.65501 31.7992 5.60837 31.9275 5.56173 32.0674C5.51509 32.1957 5.4568 32.3123 5.37518 32.4172C5.30522 32.5222 5.2236 32.6271 5.13032 32.7204C5.03704 32.8136 4.94376 32.8953 4.83882 32.9652C4.73388 33.0352 4.61729 33.0935 4.48903 33.1518C4.36077 33.1984 4.23252 33.2451 4.0926 33.2684C3.95268 33.2917 3.81276 33.3034 3.67284 33.3034C3.53292 33.3034 3.39301 33.2917 3.25309 33.2567C3.12483 33.2334 2.98491 33.1868 2.85665 33.1401C2.74006 33.0935 2.62346 33.0235 2.50686 32.9536C2.40192 32.8836 2.30864 32.802 2.21536 32.7087C2.12209 32.6154 2.05213 32.5221 1.98217 32.4056C1.91221 32.289 1.85391 32.1724 1.80727 32.0558C1.76063 31.9275 1.71399 31.7876 1.69067 31.6477C1.66735 31.5077 1.65569 31.3562 1.65569 31.2162C1.65569 31.0763 1.66736 30.9248 1.70234 30.7848C1.72566 30.6449 1.7723 30.5167 1.81893 30.3767C1.86557 30.2485 1.92387 30.1319 2.00549 30.027C2.07545 29.922 2.15707 29.8171 2.25035 29.7238C2.34363 29.6305 2.43691 29.5489 2.54184 29.4789C2.64678 29.409 2.76338 29.3507 2.89164 29.2924C3.0199 29.2457 3.14815 29.1991 3.28807 29.1758C3.42799 29.1525 3.56791 29.1408 3.70783 29.1408C3.84774 29.1408 3.98766 29.1525 4.12758 29.1874C4.26749 29.2108 4.39575 29.2574 4.52401 29.304C4.64061 29.3507 4.75721 29.4206 4.87381 29.4906C4.97874 29.5606 5.07202 29.6422 5.1653 29.7355C5.25858 29.8287 5.32854 29.922 5.3985 30.0386C5.46846 30.1552 5.52676 30.2718 5.5734 30.3884C5.62003 30.5167 5.66667 30.6566 5.68999 30.7965C5.71331 30.9364 5.72497 31.088 5.72497 31.2279C5.71331 31.3678 5.70165 31.5077 5.67833 31.6593Z" />
<path d="M21.3841 31.018C21.3841 31.2162 21.3841 31.4144 21.3724 31.6127C21.3608 31.7409 21.3491 31.8692 21.3258 31.9858C21.2791 32.219 21.2092 32.4405 21.0693 32.6504C20.7545 33.1401 20.1948 33.3849 19.6351 33.3966C19.0638 33.4083 18.5158 33.1634 18.2126 32.6504C18.0844 32.4405 18.0144 32.219 17.9678 31.9858C17.9095 31.671 17.8978 31.3445 17.8861 31.018C17.8861 30.8081 17.8745 30.5982 17.8745 30.4C17.8745 30.0502 17.8745 29.6888 17.8745 29.339C17.8745 28.7793 17.8745 28.2313 17.8745 27.6483C17.3032 27.6483 16.7435 27.6483 16.1721 27.6483C16.1721 28.2313 16.1721 29.957 16.1721 30.5399C16.1721 30.8198 16.1722 31.0996 16.1838 31.3795C16.1955 31.5777 16.1955 31.7876 16.2188 31.9858C16.2654 32.4638 16.347 32.9419 16.5686 33.3733C17.0233 34.2827 17.8978 34.8074 18.8656 34.9124C19.3436 34.9707 19.8333 34.924 20.2997 34.7958C20.7428 34.6675 21.2092 34.4227 21.5473 34.0845C21.559 34.3177 21.5823 34.5276 21.594 34.7608C22.0953 34.7608 22.5967 34.7608 23.0631 34.7608C23.0631 32.4288 23.0631 29.9803 23.0631 27.6483C22.4801 27.6483 21.9438 27.6483 21.3724 27.6483C21.3841 28.1147 21.3957 30.5633 21.3841 31.018Z" />
<path d="M26.8059 23.8005H25.0569V34.7608H26.8059V23.8005Z" />
<path d="M33.7785 16.8747C36.0055 15.079 37.3114 12.3856 37.3114 9.51732C37.3114 6.66067 36.0172 3.95559 33.7785 2.15998C32.6708 1.27383 31.3999 0.655865 30.024 0.317731C29.2312 0.131174 28.4383 0.0378947 27.6338 0.0145751C27.0391 -0.0087445 26.4328 0.0029146 25.8382 0.0029146C22.9932 0.0029146 20.1482 0.0029146 17.3032 0.0029146C16.7085 0.0029146 16.1022 0.00291531 15.5076 0.0145751C14.6914 0.0378947 13.9102 0.131174 13.1173 0.317731C11.7414 0.644206 10.4705 1.26217 9.36285 2.15998C7.11251 3.95559 5.81827 6.66067 5.81827 9.51732C5.81827 12.374 7.11251 15.079 9.35119 16.8747C10.4589 17.7608 11.7298 18.3788 13.1056 18.7169C13.8985 18.9035 14.6914 18.9851 15.4959 19.0201C16.0906 19.0434 16.6969 19.0317 17.2915 19.0317C20.1365 19.0317 22.9815 19.0317 25.8265 19.0317C26.4212 19.0317 27.0275 19.0434 27.6221 19.0201C28.4383 18.9967 29.2195 18.9151 30.0124 18.7169C31.3999 18.3788 32.6708 17.7608 33.7785 16.8747ZM28.2284 12.6421C27.7271 12.7238 27.2257 12.7238 26.7243 12.7238C23.2847 12.7238 19.845 12.7238 16.3937 12.7238C15.8923 12.7238 15.391 12.7238 14.8896 12.6421C14.3882 12.5605 13.9218 12.374 13.5021 12.0825C12.6626 11.4995 12.1495 10.5434 12.1495 9.51732C12.1495 8.49126 12.6509 7.53515 13.5021 6.96382C13.9218 6.67233 14.3882 6.47411 14.8896 6.39249C15.391 6.31088 15.8923 6.31087 16.3937 6.31087C19.8334 6.31087 23.273 6.31087 26.7243 6.31087C27.2257 6.31087 27.7271 6.31088 28.2284 6.39249C28.7298 6.47411 29.1962 6.66067 29.6159 6.95216C30.4554 7.53515 30.9685 8.49126 30.9685 9.51732C30.9685 10.5434 30.4671 11.4995 29.6159 12.0825C29.1962 12.374 28.7298 12.5605 28.2284 12.6421Z" />
<path d="M43.013 31.9858C42.7682 31.2979 42.1619 30.8665 41.5322 30.6216C41.1708 30.4817 40.8093 30.3884 40.4246 30.3068C40.2613 30.2718 40.0981 30.2368 39.9348 30.1902C39.7949 30.1552 39.655 30.1086 39.5267 30.0503C39.3868 29.992 39.2353 29.8987 39.142 29.7821C39.0604 29.6772 39.0137 29.5489 39.0254 29.409C39.0487 29.2458 39.142 29.1175 39.2586 29.0126C39.3402 28.9426 39.4335 28.896 39.5384 28.861C39.6667 28.8144 39.8066 28.7794 39.9465 28.7677C40.2263 28.7327 40.5062 28.7561 40.7743 28.8144C41.1824 28.896 41.5672 29.0592 41.9287 29.2807C42.2085 28.896 42.5 28.4995 42.7798 28.1148C42.2085 27.7067 41.5672 27.4385 40.8676 27.3336C40.4828 27.2753 40.0864 27.2636 39.7016 27.3219C39.3985 27.3569 39.107 27.4385 38.8271 27.5551C38.454 27.7067 38.1276 27.9399 37.8594 28.2547C37.6728 28.4879 37.5329 28.7444 37.463 29.0242C37.3697 29.374 37.3697 29.7471 37.4746 30.0969C37.5796 30.4234 37.7661 30.6916 38.011 30.9131C38.5357 31.3679 39.2819 31.5427 39.9232 31.6827C40.1447 31.7293 40.3662 31.7759 40.5878 31.8342C40.7627 31.8809 40.9492 31.9508 41.1125 32.0441C41.2407 32.1141 41.3573 32.219 41.4273 32.3473C41.4973 32.4522 41.5206 32.5805 41.5089 32.7087C41.4972 32.8253 41.4506 32.9419 41.3807 33.0352C41.299 33.1518 41.1824 33.2334 41.0542 33.2917C40.8909 33.3733 40.7044 33.42 40.5295 33.4433C40.2846 33.4783 40.0164 33.4666 39.7716 33.4433C39.4918 33.4083 39.2353 33.35 38.9671 33.2451C38.5706 33.0935 38.2208 32.8836 37.8827 32.6271C37.5796 33.0352 37.2764 33.4316 36.9732 33.8397C37.5096 34.2828 38.1276 34.6209 38.8038 34.8075C39.1769 34.9124 39.5501 34.9707 39.9348 34.9824C40.2496 34.9941 40.5528 34.9707 40.856 34.9241C41.2524 34.8541 41.6372 34.7259 41.987 34.5277C42.2435 34.3761 42.465 34.1895 42.6399 33.9447C42.8731 33.6415 43.0247 33.2801 43.083 32.9069C43.1529 32.5921 43.118 32.2773 43.013 31.9858Z" />
<path d="M33.8834 31.018C33.8834 31.2162 33.8834 31.4144 33.8717 31.6127C33.8601 31.7409 33.8484 31.8692 33.8251 31.9858C33.7785 32.219 33.7085 32.4405 33.5686 32.6504C33.2538 33.1401 32.6941 33.3849 32.1344 33.3966C31.5631 33.4083 31.0151 33.1634 30.7119 32.6504C30.5837 32.4405 30.5137 32.219 30.4671 31.9858C30.4088 31.671 30.3971 31.3445 30.3855 31.018C30.3855 30.8081 30.3738 30.5982 30.3738 30.4C30.3738 30.0502 30.3738 29.6888 30.3738 29.339C30.3738 28.7793 30.3738 28.2313 30.3738 27.6483C29.8025 27.6483 29.2428 27.6483 28.6715 27.6483C28.6715 28.2313 28.6715 29.957 28.6715 30.5399C28.6715 30.8198 28.6715 31.0996 28.6831 31.3795C28.6948 31.5777 28.6948 31.7876 28.7181 31.9858C28.7648 32.4638 28.8464 32.9419 29.0679 33.3733C29.5226 34.2827 30.3971 34.8074 31.3649 34.9124C31.8429 34.9707 32.3327 34.924 32.7991 34.7958C33.2421 34.6675 33.7085 34.4227 34.0466 34.0845C34.0583 34.3177 34.0816 34.5276 34.0933 34.7608C34.5947 34.7608 35.0844 34.7608 35.5508 34.7608C35.5508 32.4288 35.5508 29.9803 35.5508 27.6483C34.9678 27.6483 34.4547 27.6483 33.8834 27.6483C33.8834 28.1147 33.8834 30.5633 33.8834 31.018Z" />
</svg>
