<svg id="logo-xbox" viewBox="0 0 34 32" xmlns="http://www.w3.org/2000/svg">
<path d="M5.5615 4.64002C2.45722 7.52002 0.660004 11.52 0.660004 16C0.660004 19.68 1.96707 23.04 3.92767 25.76C3.92767 25.76 3.92767 25.76 4.09105 25.76C4.09105 25.76 4.09105 25.76 4.09105 25.6C2.78399 21.92 9.15594 12.8 12.587 8.96002C7.03195 3.36002 5.5615 4.64002 5.5615 4.64002Z" />
<path d="M28.4352 4.64004C31.3761 7.52004 33.3367 11.52 33.3367 16C33.3367 19.68 32.0296 23.04 30.069 25.76C30.069 25.76 30.069 25.76 29.9056 25.76C29.9056 25.76 29.9056 25.76 29.9056 25.6C31.2127 21.76 24.8407 12.64 21.5731 8.80004C26.9647 3.36004 28.4352 4.64004 28.4352 4.64004Z" />
<path d="M16.9983 0C20.266 0 23.0435 0.96 25.4943 2.4C22.2266 1.76 17.4885 4.48 16.9983 4.8C15.6913 4 11.2799 1.76 8.50241 2.4C8.50241 2.4 8.50241 2.4 8.50241 2.24C10.9532 0.96 13.7307 0 16.9983 0Z" />
<path d="M16.9983 12.8C21.8998 16.48 30.2324 25.44 27.7816 28C24.8407 30.56 21.0829 32 16.9983 32C12.9138 32 9.15594 30.56 6.21504 28C3.76429 25.44 12.0968 16.48 16.9983 12.8Z" />
</svg>
